<svg height="590" width="720" xmlns="http://www.w3.org/2000/svg">
<rect height="590" fill="#555" width="720"></rect>
<text fill="#7f7" font-family="Courier New" font-size="12" xml:space="preserve">
<tspan x="10" y="26">2 megabytes installed</tspan>
<tspan x="10" y="42"></tspan>
<tspan x="10" y="58">node_modules</tspan>
<tspan x="10" y="74">└─┬ google-translate-api@2.2.2 </tspan>
<tspan x="10" y="90">  ├─┬ configstore@2.1.0 </tspan>
<tspan x="10" y="106">  │ ├─┬ dot-prop@3.0.0 </tspan>
<tspan x="10" y="122">  │ │ └── is-obj@1.0.1 </tspan>
<tspan x="10" y="138">  │ ├── graceful-fs@4.1.11 </tspan>
<tspan x="10" y="154">  │ ├─┬ mkdirp@0.5.1 </tspan>
<tspan x="10" y="170">  │ │ └── minimist@0.0.8 </tspan>
<tspan x="10" y="186">  │ ├── object-assign@4.1.1 </tspan>
<tspan x="10" y="202">  │ ├── os-tmpdir@1.0.2 </tspan>
<tspan x="10" y="218">  │ ├─┬ osenv@0.1.4 </tspan>
<tspan x="10" y="234">  │ │ └── os-homedir@1.0.2 </tspan>
<tspan x="10" y="250">  │ ├── uuid@2.0.3 </tspan>
<tspan x="10" y="266">  │ ├─┬ write-file-atomic@1.3.1 </tspan>
<tspan x="10" y="282">  │ │ ├── imurmurhash@0.1.4 </tspan>
<tspan x="10" y="298">  │ │ └── slide@1.1.6 </tspan>
<tspan x="10" y="314">  │ └── xdg-basedir@2.0.0 </tspan>
<tspan x="10" y="330">  ├── google-translate-token@1.0.0 </tspan>
<tspan x="10" y="346">  ├─┬ got@6.7.1 </tspan>
<tspan x="10" y="362">  │ ├─┬ create-error-class@3.0.2 </tspan>
<tspan x="10" y="378">  │ │ └── capture-stack-trace@1.0.0 </tspan>
<tspan x="10" y="394">  │ ├── duplexer3@0.1.4 </tspan>
<tspan x="10" y="410">  │ ├── get-stream@3.0.0 </tspan>
<tspan x="10" y="426">  │ ├── is-redirect@1.0.0 </tspan>
<tspan x="10" y="442">  │ ├── is-retry-allowed@1.1.0 </tspan>
<tspan x="10" y="458">  │ ├── is-stream@1.1.0 </tspan>
<tspan x="10" y="474">  │ ├── lowercase-keys@1.0.0 </tspan>
<tspan x="10" y="490">  │ ├── safe-buffer@5.0.1 </tspan>
<tspan x="10" y="506">  │ ├── timed-out@4.0.1 </tspan>
<tspan x="10" y="522">  │ ├── unzip-response@2.0.1 </tspan>
<tspan x="10" y="538">  │ └─┬ url-parse-lax@1.0.0 </tspan>
<tspan x="10" y="554">  │   └── prepend-http@1.0.4 </tspan>
<tspan x="10" y="570">  └── safe-eval@0.3.0</tspan>
</text>
</svg>
